<svg width="1413" height="700" viewBox="0 0 1413 700" fill="none" xmlns="http://www.w3.org/2000/svg">
<path fill-rule="evenodd" clip-rule="evenodd" d="M20 79C8.9543 79 0 87.9543 0 99V650C0 677.614 22.3858 700 50 700H1143C1154.05 700 1163 691.046 1163 680V630C1163 618.954 1171.95 610 1183 610H1393C1404.05 610 1413 601.046 1413 590V122.857C1413 111.811 1404.05 102.857 1393 102.857H1033C1021.95 102.857 1013 93.9028 1013 82.8571V20C1013 8.95431 1004.05 0 993 0H270C258.954 0 250 8.9543 250 20V59C250 70.0457 241.046 79 230 79H20Z" fill="#F9F1E3"/>
</svg>
