<svg width="500" height="800" viewBox="0 0 500 800" fill="none" xmlns="http://www.w3.org/2000/svg">
<path fill-rule="evenodd" clip-rule="evenodd" d="M430 10C430 4.47715 425.523 0 420 0H190C184.477 0 180 4.47715 180 10V50C180 55.5228 175.523 60 170 60H10C4.47715 60 0 64.4771 0 70V790C0 795.523 4.47715 800 10 800H310C315.523 800 320 795.523 320 790V750C320 744.477 324.477 740 330 740H490C495.523 740 500 735.523 500 730V70C500 64.4771 495.523 60 490 60H440C434.477 60 430 55.5228 430 50V10Z" fill="#F9F1E3"/>
</svg>
