<svg width="188" height="27" viewBox="0 0 188 27" fill="none" xmlns="http://www.w3.org/2000/svg">
<path d="M4.04 26.48V22.88H0.4V18.84H4.44V22.48H14.92V15.6H4.04V12H0.4V4.4H4.04V0.759998H15.32V4.4H19V8.4H14.92V4.8H4.44V11.64H15.32V15.2H19V22.88H15.32V26.48H4.04ZM23.8375 26.48V8H27.8775V26.48H23.8375ZM23.8375 4.8V0.759998H27.8775V4.8H23.8375ZM32.7047 26.48V0.759998H36.7447V26.48H32.7047ZM41.5719 26.48V8H45.6119V26.48H41.5719ZM41.5719 4.8V0.759998H45.6119V4.8H41.5719ZM53.2978 26.48V22.88H49.6578V4.4H53.2978V0.759998H64.5778V4.4H68.2578V12H64.1778V4.8H53.6978V22.48H64.1778V15.2H68.2578V22.88H64.5778V26.48H53.2978ZM76.7353 26.48V22.88H73.0953V11.64H76.7353V8H88.0153V11.64H91.6953V22.48H95.3353V26.48H91.2953V22.88H88.0153V26.48H76.7353ZM77.1353 22.48H87.6153V12H77.1353V22.48ZM101.813 26.48V22.88H98.1734V11.64H101.813V8H113.093V11.64H116.773V15.6H112.693V12H102.213V22.48H112.693V18.84H116.773V22.88H113.093V26.48H101.813ZM126.859 26.48V22.88H123.259V12H119.619V8H123.259V0.759998H127.259V8H138.219V12H127.259V22.48H137.819V18.84H141.859V22.88H138.219V26.48H126.859ZM149.548 26.48V22.88H145.908V8H149.948V22.48H160.428V8H164.508V22.88H160.828V26.48H149.548ZM168.955 26.48V22.48H183.475V19.24H172.595V15.6H168.955V11.64H172.595V8H187.555V12H172.995V15.2H183.875V18.84H187.555V22.88H183.875V26.48H168.955Z" fill="#1F1F22"/>
</svg>
