<svg width="1600" height="780" viewBox="0 0 1600 780" fill="none" xmlns="http://www.w3.org/2000/svg">
<path fill-rule="evenodd" clip-rule="evenodd" d="M1192 20C1192 8.9543 1183.05 0 1172 0H270C258.954 0 250 8.9543 250 20V70C250 81.0457 241.046 90 230 90H20C8.9543 90 0 98.9543 0 110V760C0 771.046 8.9543 780 20 780H1315C1326.05 780 1335 771.046 1335 760V710C1335 698.954 1343.95 690 1355 690H1580C1591.05 690 1600 681.046 1600 670V122.857C1600 111.811 1591.05 102.857 1580 102.857H1212C1200.95 102.857 1192 93.9028 1192 82.8571V20Z" fill="#F9F1E3"/>
</svg>
