<svg width="500" height="800" viewBox="0 0 500 800" fill="none" xmlns="http://www.w3.org/2000/svg">
<mask id="path-1-inside-1_69_24" fill="white">
<path fill-rule="evenodd" clip-rule="evenodd" d="M80 100C51.9974 100 37.9961 100 27.3005 105.45C17.8924 110.243 10.2433 117.892 5.44967 127.3C0 137.996 0 151.997 0 180V780C0 791.046 8.95432 800 20 800H480C491.046 800 500 791.046 500 780V20C500 8.95431 491.046 0 480 0H180C151.997 0 137.996 0 127.3 5.44967C117.892 10.2433 110.243 17.8924 105.45 27.3005C100 37.9961 100 51.9974 100 80V80C100 91.0457 91.0457 100 80 100V100Z"/>
</mask>
<path fill-rule="evenodd" clip-rule="evenodd" d="M80 100C51.9974 100 37.9961 100 27.3005 105.45C17.8924 110.243 10.2433 117.892 5.44967 127.3C0 137.996 0 151.997 0 180V780C0 791.046 8.95432 800 20 800H480C491.046 800 500 791.046 500 780V20C500 8.95431 491.046 0 480 0H180C151.997 0 137.996 0 127.3 5.44967C117.892 10.2433 110.243 17.8924 105.45 27.3005C100 37.9961 100 51.9974 100 80V80C100 91.0457 91.0457 100 80 100V100Z" fill="#F8F882"/>
<path d="M105.45 27.3005L102.777 25.9385L105.45 27.3005ZM27.3005 105.45L25.9385 102.777L27.3005 105.45ZM3 780V180H-3V780H3ZM20 797C10.6112 797 3 789.389 3 780H-3C-3 792.703 7.29747 803 20 803V797ZM480 797H20V803H480V797ZM497 780C497 789.389 489.389 797 480 797V803C492.703 803 503 792.703 503 780H497ZM497 20V780H503V20H497ZM480 3C489.389 3 497 10.6112 497 20H503C503 7.29745 492.703 -3 480 -3V3ZM180 3H480V-3H180V3ZM97 80C97 89.3888 89.3888 97 80 97V103C92.7025 103 103 92.7025 103 80H97ZM180 -3C166.048 -3 155.404 -3.00233 146.916 -2.30883C138.393 -1.61246 131.78 -0.199584 125.939 2.77665L128.662 8.12269C133.517 5.64926 139.252 4.3373 147.404 3.67125C155.591 3.00233 165.949 3 180 3V-3ZM103 80C103 65.9492 103.002 55.5915 103.671 47.4044C104.337 39.2523 105.649 33.5168 108.123 28.6624L102.777 25.9385C99.8004 31.7797 98.3875 38.3927 97.6912 46.9158C96.9977 55.4039 97 66.0482 97 80H103ZM125.939 2.77665C115.966 7.85794 107.858 15.9659 102.777 25.9385L108.123 28.6624C112.629 19.8188 119.819 12.6287 128.662 8.12269L125.939 2.77665ZM3 180C3 165.949 3.00233 155.591 3.67125 147.404C4.3373 139.252 5.64926 133.517 8.12269 128.662L2.77665 125.939C-0.199584 131.78 -1.61246 138.393 -2.30883 146.916C-3.00233 155.404 -3 166.048 -3 180H3ZM80 97C66.0482 97 55.4039 96.9977 46.9158 97.6912C38.3927 98.3875 31.7797 99.8004 25.9385 102.777L28.6624 108.123C33.5168 105.649 39.2523 104.337 47.4044 103.671C55.5915 103.002 65.9492 103 80 103V97ZM8.12269 128.662C12.6287 119.819 19.8188 112.629 28.6624 108.123L25.9385 102.777C15.9659 107.858 7.85794 115.966 2.77665 125.939L8.12269 128.662Z" fill="#F8F882" mask="url(#path-1-inside-1_69_24)"/>
</svg>
